<mxfile host="app.diagrams.net" modified="2024-03-23T09:15:50.226Z" agent="Mozilla/5.0 (Windows NT 10.0; Win64; x64) AppleWebKit/537.36 (KHTML, like Gecko) Chrome/123.0.0.0 Safari/537.36" etag="2buN1U-0dIm9bMpj_RPO" version="24.0.8" type="device">
  <diagram name="Page-1" id="AGHhnrZ_kICbTTGHxxAm">
    <mxGraphModel dx="2284" dy="746" grid="1" gridSize="10" guides="1" tooltips="1" connect="1" arrows="1" fold="1" page="1" pageScale="1" pageWidth="850" pageHeight="1100" math="0" shadow="0">
      <root>
        <mxCell id="0" />
        <mxCell id="1" parent="0" />
        <mxCell id="EA1d2VdAH-lV-6f50Ktq-1" value="DC" style="rounded=0;whiteSpace=wrap;html=1;" vertex="1" parent="1">
          <mxGeometry x="560" y="260" width="240" height="250" as="geometry" />
        </mxCell>
        <mxCell id="EA1d2VdAH-lV-6f50Ktq-2" value="On Premesis Data: Teo, Ti have local ID" style="text;html=1;align=center;verticalAlign=middle;whiteSpace=wrap;rounded=0;" vertex="1" parent="1">
          <mxGeometry x="600" y="220" width="160" height="40" as="geometry" />
        </mxCell>
        <mxCell id="EA1d2VdAH-lV-6f50Ktq-3" value="Using protocal such as OpenID,&amp;nbsp;&lt;div&gt;Oauth, SAML to sync with SAAS&lt;/div&gt;" style="ellipse;shape=cloud;whiteSpace=wrap;html=1;" vertex="1" parent="1">
          <mxGeometry x="110" y="290" width="270" height="180" as="geometry" />
        </mxCell>
        <mxCell id="EA1d2VdAH-lV-6f50Ktq-4" value="EntraID" style="text;html=1;align=center;verticalAlign=middle;whiteSpace=wrap;rounded=0;" vertex="1" parent="1">
          <mxGeometry x="220" y="250" width="100" height="50" as="geometry" />
        </mxCell>
        <mxCell id="EA1d2VdAH-lV-6f50Ktq-5" value="SAAS&lt;div&gt;such as: Office 365, Slack&lt;/div&gt;" style="ellipse;shape=cloud;whiteSpace=wrap;html=1;" vertex="1" parent="1">
          <mxGeometry x="-180" y="265" width="220" height="170" as="geometry" />
        </mxCell>
        <mxCell id="EA1d2VdAH-lV-6f50Ktq-6" value="ID" style="text;html=1;align=center;verticalAlign=middle;whiteSpace=wrap;rounded=0;" vertex="1" parent="1">
          <mxGeometry x="-100" y="240" width="60" height="30" as="geometry" />
        </mxCell>
        <mxCell id="EA1d2VdAH-lV-6f50Ktq-7" value="" style="sketch=0;outlineConnect=0;fontColor=#232F3E;gradientColor=none;fillColor=#232F3D;strokeColor=none;dashed=0;verticalLabelPosition=bottom;verticalAlign=top;align=center;html=1;fontSize=12;fontStyle=0;aspect=fixed;pointerEvents=1;shape=mxgraph.aws4.question;" vertex="1" parent="1">
          <mxGeometry x="299.5" y="50" width="41" height="78" as="geometry" />
        </mxCell>
        <mxCell id="EA1d2VdAH-lV-6f50Ktq-9" value="How to sync ID on Premesis with SAAS" style="text;html=1;align=center;verticalAlign=middle;whiteSpace=wrap;rounded=0;" vertex="1" parent="1">
          <mxGeometry x="200" y="130" width="240" height="30" as="geometry" />
        </mxCell>
        <mxCell id="EA1d2VdAH-lV-6f50Ktq-10" value="&lt;font color=&quot;#ff7083&quot;&gt;Entra Connect on Premessis&lt;/font&gt;" style="endArrow=classic;html=1;rounded=0;exitX=0;exitY=0.5;exitDx=0;exitDy=0;entryX=0.875;entryY=0.5;entryDx=0;entryDy=0;entryPerimeter=0;" edge="1" parent="1" source="EA1d2VdAH-lV-6f50Ktq-1" target="EA1d2VdAH-lV-6f50Ktq-3">
          <mxGeometry width="50" height="50" relative="1" as="geometry">
            <mxPoint x="400" y="410" as="sourcePoint" />
            <mxPoint x="450" y="360" as="targetPoint" />
          </mxGeometry>
        </mxCell>
        <mxCell id="EA1d2VdAH-lV-6f50Ktq-12" value="Instal it on seperate member server" style="text;html=1;align=center;verticalAlign=middle;whiteSpace=wrap;rounded=0;" vertex="1" parent="1">
          <mxGeometry x="425" y="405" width="60" height="65" as="geometry" />
        </mxCell>
        <mxCell id="EA1d2VdAH-lV-6f50Ktq-14" value="" style="endArrow=classic;html=1;rounded=0;exitX=0.059;exitY=0.367;exitDx=0;exitDy=0;exitPerimeter=0;entryX=0.875;entryY=0.5;entryDx=0;entryDy=0;entryPerimeter=0;" edge="1" parent="1" source="EA1d2VdAH-lV-6f50Ktq-3" target="EA1d2VdAH-lV-6f50Ktq-5">
          <mxGeometry width="50" height="50" relative="1" as="geometry">
            <mxPoint x="100" y="460" as="sourcePoint" />
            <mxPoint x="150" y="410" as="targetPoint" />
          </mxGeometry>
        </mxCell>
        <mxCell id="EA1d2VdAH-lV-6f50Ktq-15" value="For security:&lt;div&gt;- MFA&lt;/div&gt;&lt;div&gt;- CA&lt;/div&gt;&lt;div&gt;PIM&lt;/div&gt;&lt;div&gt;PAM&lt;/div&gt;" style="text;html=1;align=center;verticalAlign=middle;whiteSpace=wrap;rounded=0;" vertex="1" parent="1">
          <mxGeometry x="395" y="260" width="120" height="90" as="geometry" />
        </mxCell>
      </root>
    </mxGraphModel>
  </diagram>
</mxfile>
